<?xml version="1.0" encoding="UTF-8" standalone="no"?>
<svg
   data-name="Capa 2"
   viewBox="0 0 100 125"
   x="0px"
   y="0px"
   version="1.1"
   id="svg2"
   sodipodi:docname="earth-globe-purple.svg"
   inkscape:version="1.3.2 (091e20e, 2023-11-25, custom)"
   xmlns:inkscape="http://www.inkscape.org/namespaces/inkscape"
   xmlns:sodipodi="http://sodipodi.sourceforge.net/DTD/sodipodi-0.dtd"
   xmlns="http://www.w3.org/2000/svg"
   xmlns:svg="http://www.w3.org/2000/svg"
   xmlns:rdf="http://www.w3.org/1999/02/22-rdf-syntax-ns#"
   xmlns:cc="http://creativecommons.org/ns#"
   xmlns:dc="http://purl.org/dc/elements/1.1/">
  <defs
     id="defs2">
    <rect
       x="66.40159"
       y="107.75348"
       width="80.516899"
       height="19.483101"
       id="rect3" />
  </defs>
  <sodipodi:namedview
     id="namedview2"
     pagecolor="#ffffff"
     bordercolor="#000000"
     borderopacity="0.25"
     inkscape:showpageshadow="2"
     inkscape:pageopacity="0.0"
     inkscape:pagecheckerboard="0"
     inkscape:deskcolor="#d1d1d1"
     inkscape:zoom="5.03"
     inkscape:cx="6.6600398"
     inkscape:cy="65.506958"
     inkscape:window-width="1920"
     inkscape:window-height="1027"
     inkscape:window-x="1912"
     inkscape:window-y="-8"
     inkscape:window-maximized="1"
     inkscape:current-layer="svg2" />
  <title
     id="title1">Artboard 2</title>
  <text
     x="0"
     y="115"
     fill="#000000"
     font-size="5px"
     font-weight="bold"
     font-family="'Helvetica Neue', Helvetica, Arial-Unicode, Arial, Sans-serif"
     id="text1" />
  <text
     x="0"
     y="120"
     fill="#000000"
     font-size="5px"
     font-weight="bold"
     font-family="'Helvetica Neue', Helvetica, Arial-Unicode, Arial, Sans-serif"
     id="text2" />
  <path
     style="fill:#a866ff;fill-opacity:1;stroke:#ececec;stroke-width:0.105833"
     d="M 47.448172,109.47861 C 32.490774,108.64513 18.672046,100.97457 10.356938,88.889855 7.9085271,85.331469 6.2064647,82.025748 4.8337467,78.162785 c -3.5334072,-9.943348 -3.5334072,-20.537861 0,-30.481208 1.372718,-3.862963 3.0747804,-7.168684 5.5231913,-10.727071 4.590346,-6.671352 10.929188,-12.103603 18.323379,-15.70274 12.219204,-5.947723 26.38162,-6.561357 39.078906,-1.693224 6.422735,2.462474 11.85573,5.977924 16.754634,10.841186 6.015704,5.971927 10.140799,13.113334 12.238262,21.186992 2.811138,10.820756 1.522842,22.23264 -3.6385,32.230374 -0.940821,1.822412 -1.711718,3.095209 -3.072405,5.072761 -4.585475,6.664276 -10.937034,12.107425 -18.323378,15.702745 -7.494187,3.64781 -15.947913,5.34973 -24.269664,4.88601 z m 6.903059,-3.17091 c 2.010084,-0.18698 4.381378,-0.568 6.265791,-1.00678 0.767922,-0.1788 1.433716,-0.34612 1.479543,-0.3718 0.04582,-0.0257 -0.03583,-0.18421 -0.181448,-0.35225 -0.149668,-0.17272 -0.290564,-0.49801 -0.324103,-0.74827 -0.03263,-0.2435 -0.253028,-3.18811 -0.489768,-6.543573 -0.23674,-3.355461 -0.457384,-6.341652 -0.490317,-6.63598 l -0.05988,-0.535139 -2.533692,-0.598032 c -2.467063,-0.582305 -2.546027,-0.609072 -3.002714,-1.017826 -0.957662,-0.857151 -5.035279,-5.20733 -5.169105,-5.514625 -0.115014,-0.264098 -0.107506,-0.682559 0.04389,-2.447367 0.10044,-1.170839 0.159622,-2.151137 0.131503,-2.17844 -0.02811,-0.0273 -0.936892,0.138726 -2.019497,0.368953 -1.701006,0.361734 -2.019211,0.402302 -2.342624,0.29866 -0.224644,-0.07199 -1.252128,-0.869865 -2.570324,-1.995943 l -2.196077,-1.876012 -1.629655,-0.363759 -1.629657,-0.363761 -4.092707,0.07267 c -4.480494,0.07956 -4.476051,0.08003 -4.970126,-0.529876 -0.121646,-0.150166 -0.519678,-1.017798 -0.884512,-1.928071 -0.364836,-0.910275 -0.70455,-1.630312 -0.754921,-1.600083 -0.05037,0.03023 -0.09166,0.228178 -0.09175,0.439887 -5.29e-4,1.220996 -1.37142,2.003049 -2.365742,1.349586 -0.259442,-0.170502 -1.210633,-1.560292 -3.479581,-5.084032 l -3.122537,-4.849385 0.03883,-8.542089 0.03883,-8.542091 -1.220247,0.0662 c -0.671136,0.03642 -2.066033,0.09455 -3.099772,0.129188 -1.777148,0.05956 -1.898594,0.05123 -2.229564,-0.152976 -0.70333,-0.433938 -0.962708,-1.236536 -0.612272,-1.89456 0.30919,-0.580572 8.02868,-9.920968 8.362833,-10.118824 0.679197,-0.402161 0.892674,-0.329591 4.61715,1.569546 l 3.465598,1.767133 4.490017,-1.193718 c 5.027375,-1.336581 4.983778,-1.331773 5.626862,-0.620575 0.576383,0.637432 0.559148,0.788668 -0.415732,3.648117 -0.484136,1.42003 -0.838115,2.618787 -0.787743,2.667699 0.105204,0.102154 2.543794,0.932389 2.594379,0.88327 0.01842,-0.01789 -0.09666,-0.912178 -0.255725,-1.987321 l -0.289211,-1.954804 0.225713,-0.451117 c 0.226462,-0.452615 0.840092,-0.874516 1.275131,-0.876717 0.389513,-0.002 13.308009,2.943678 13.671121,3.117261 0.511458,0.244499 0.901939,0.988739 0.798814,1.522508 -0.108894,0.563625 -0.457672,0.897322 -1.821934,1.743153 -0.67577,0.418974 -1.229493,0.791272 -1.230493,0.827332 -10e-4,0.03606 0.144152,0.124273 0.32256,0.196031 0.69909,0.281177 1.108076,1.117595 0.870312,1.779871 -0.06436,0.179276 -1.422315,2.05209 -3.017674,4.161812 l -2.900652,3.835856 -0.542794,3.333983 -0.542792,3.333982 0.595478,1.178148 c 0.335581,0.663943 0.595479,1.320052 0.595479,1.50328 0,0.725635 -0.799358,1.515288 -1.538145,1.519471 -0.177603,10e-4 -1.311184,-0.498625 -2.738738,-1.20711 l -2.435712,-1.208827 -1.947539,1.06485 -1.947539,1.064848 -0.0518,1.317217 -0.05181,1.317215 0.567231,0.563672 0.567232,0.56367 0.6266,-0.117534 c 0.600642,-0.112667 0.662138,-0.155456 1.484536,-1.032967 1.658751,-1.769912 2.012514,-2.081419 2.451677,-2.158818 0.501804,-0.08844 1.248792,0.22526 1.5305,0.642738 0.113305,0.167913 0.28222,0.889025 0.432406,1.845988 0.135554,0.863738 0.249207,1.577454 0.252559,1.586035 0.0033,0.0086 0.365211,0.09319 0.804128,0.188001 1.17512,0.253861 1.400708,0.444649 2.225013,1.881786 0.392652,0.684567 0.765792,1.261461 0.829203,1.281986 0.06341,0.02052 0.865947,-0.23547 1.783415,-0.568875 l 1.668122,-0.606189 2.604246,-2.010143 c 1.432336,-1.105578 2.749238,-2.048582 2.926451,-2.095566 0.2564,-0.06797 8.342357,0.171129 14.391802,0.425572 1.562181,0.06571 2.001583,0.424749 2.094329,1.711307 l 0.0537,0.744922 3.866454,-1.140518 c 4.12333,-1.216292 4.361527,-1.256042 4.976924,-0.830543 0.173261,0.119795 0.393746,0.408862 0.489967,0.642371 0.167049,0.405392 0.147781,0.731542 -0.426718,7.223278 -0.330916,3.739294 -0.646384,6.96297 -0.701041,7.163724 -0.06822,0.250587 -1.868366,2.457273 -5.742532,7.039429 -5.305279,6.274804 -5.793967,6.887887 -8.161991,10.23974 -1.385361,1.96091 -2.54827,3.63978 -2.584244,3.7308 -0.120739,0.30552 2.94467,-0.87113 5.490741,-2.10762 8.14653,-3.956311 14.750354,-10.087577 19.179807,-17.807327 6.707904,-11.690681 7.460487,-25.837392 2.036096,-38.27364 -0.600615,-1.377019 -2.352396,-4.70862 -2.563217,-4.87483 -0.138763,-0.1094 -0.155375,-0.103035 -0.100796,0.03862 0.03594,0.09329 0.843861,2.476571 1.795379,5.29619 1.615901,4.788352 1.722651,5.153237 1.617997,5.530624 -0.112454,0.405508 -0.661208,0.977557 -1.041756,1.085978 -0.729634,0.207873 -6.773103,1.422875 -7.077454,1.422875 -0.492378,0 -0.937386,-0.23019 -1.259853,-0.651689 -0.142662,-0.186476 -2.182791,-3.506789 -4.533618,-7.378475 l -4.274232,-7.03943 -2.412194,-3.051567 C 70.144794,34.29397 69.151023,33.126009 69.008324,33.09337 67.437905,32.734168 65.348128,32.376479 63.513175,32.15281 61.93769,31.960769 61.132406,31.816112 60.831822,31.671148 60.546812,31.533694 59.516567,30.540967 57.770879,28.721672 l -2.631333,-2.742284 -4.994171,-1.176721 c -2.755176,-0.649172 -5.38597,-1.211862 -5.868098,-1.255104 -0.987191,-0.08854 -1.188238,-0.167889 -1.584753,-0.625459 -0.517733,-0.597452 -0.499305,-1.308903 0.04962,-1.915974 0.418997,-0.463377 0.817392,-0.542967 3.483072,-0.695834 2.223265,-0.127497 2.420167,-0.171303 3.007242,-0.669046 l 0.322205,-0.273176 -1.611023,0.0563 c -3.457465,0.120812 -7.343319,0.783723 -10.874402,1.855129 -0.782689,0.237485 -1.423071,0.467347 -1.423071,0.510805 0,0.04346 1.824483,0.970022 4.054407,2.05903 l 4.054407,1.980014 3.590751,3.564711 c 1.974914,1.960591 3.726901,3.731064 3.893305,3.934386 0.47836,0.584489 0.387278,1.522519 -0.196608,2.024809 -0.411635,0.354108 -2.872123,1.377511 -3.313592,1.378237 -0.316422,5.2e-4 -1.868838,-0.58003 -5.892425,-2.203567 l -5.462816,-2.204276 -3.881114,1.556856 c -2.134613,0.85627 -4.02807,1.585341 -4.207683,1.620156 -0.479977,0.09304 -7.043806,-2.457367 -7.53212,-2.926638 -0.35911,-0.345105 -0.536229,-0.908862 -0.423078,-1.346622 0.137083,-0.530349 0.711416,-0.946792 3.699449,-2.682436 1.693283,-0.983569 3.112274,-1.816804 3.153313,-1.85163 0.04104,-0.03483 -0.118475,-0.220483 -0.354476,-0.412566 l -0.429092,-0.349245 -1.037571,0.662108 C 10.164082,36.291437 2.5555651,54.14955 6.1770146,71.621311 8.9021109,84.768602 17.808991,96.012722 30.222396,101.97641 c 4.836664,2.32364 10.173082,3.80727 15.561214,4.32632 1.987711,0.19148 6.534243,0.19411 8.567621,0.005 z m 11.798097,-9.426003 c 1.026953,-1.461257 2.910697,-3.797168 6.812162,-8.447314 l 5.392685,-6.427526 0.46727,-5.291768 c 0.256998,-2.910473 0.445033,-5.31336 0.417854,-5.339752 -0.02717,-0.02639 -1.772799,0.449914 -3.879158,1.058454 l -3.82974,1.106439 -0.488012,-0.180971 c -0.772078,-0.28631 -0.966769,-0.642697 -1.010646,-1.850013 l -0.03662,-1.007417 -1.091103,-0.06253 C 67.478975,70.357639 59.0974,70.065897 58.176205,70.065897 h -0.713153 l -2.424538,1.869986 c -1.790269,1.380787 -2.585883,1.928871 -3.041281,2.095078 -0.339209,0.123801 -1.438365,0.506515 -2.442568,0.850475 -1.004205,0.343959 -1.874157,0.673546 -1.933228,0.732414 -0.07289,0.07263 -0.03837,0.08743 0.107398,0.04602 0.118141,-0.03356 1.012258,-0.229984 1.986927,-0.436492 2.200683,-0.466268 2.672306,-0.45286 3.18517,0.09055 0.193795,0.205335 0.385,0.499642 0.424901,0.654014 0.0399,0.154373 -0.01956,1.564357 -0.132134,3.133299 l -0.204684,2.852622 1.969435,2.060117 c 1.083189,1.133063 2.026199,2.089731 2.095576,2.125929 0.06938,0.0362 1.378954,0.36148 2.91017,0.72285 3.070618,0.724674 3.385529,0.86851 3.603057,1.645701 0.05871,0.209775 0.253005,2.493237 0.431757,5.074361 0.38457,5.553063 0.396142,5.660295 0.58952,5.462921 0.07772,-0.07931 0.780079,-1.053143 1.56079,-2.164031 z m -19.4408,-21.120953 c 0,-0.02255 -0.0725,-0.06799 -0.161103,-0.101011 -0.08861,-0.03302 -0.161102,-0.01457 -0.161102,0.04099 0,0.05556 0.0725,0.10101 0.161102,0.10101 0.08861,0 0.161103,-0.01844 0.161103,-0.04099 z M 44.517676,73.350431 43.826925,72.108698 42.741764,71.872842 C 41.301722,71.559853 40.927025,71.271684 40.75527,70.345081 l -0.0739,-0.398691 -0.458389,0.410279 c -0.374335,0.335046 -0.60458,0.441392 -1.255631,0.579949 -1.494637,0.31809 -1.656419,0.359784 -1.436634,0.370259 0.438556,0.0209 4.490639,0.963243 4.763093,1.107694 0.153868,0.08158 0.859729,0.640231 1.568579,1.241448 0.708851,0.601219 1.301693,1.057804 1.317429,1.014635 0.01573,-0.04317 -0.282228,-0.637269 -0.662141,-1.320223 z m -8.790887,-1.975822 c 0.0148,-0.01244 -0.626166,-0.650558 -1.424379,-1.418037 -0.977841,-0.94019 -1.482129,-1.503852 -1.545814,-1.727813 -0.114188,-0.401566 0.0502,-4.521036 0.201522,-5.050189 0.0581,-0.203137 0.239613,-0.488743 0.403375,-0.634683 0.440705,-0.392738 5.890607,-3.330197 6.290746,-3.390668 0.264439,-0.03996 0.600834,0.07078 1.458808,0.480243 0.613313,0.292701 1.133887,0.513954 1.156832,0.491673 0.02295,-0.02228 0.306723,-1.631213 0.630617,-3.575405 0.323892,-1.944192 0.632516,-3.633093 0.68583,-3.753114 0.05332,-0.12002 0.949973,-1.331563 1.992574,-2.692317 1.0426,-1.360754 1.925091,-2.548631 1.961093,-2.639726 0.05526,-0.139832 -5.2e-5,-0.155871 -0.355156,-0.102983 -0.231335,0.03445 -0.882721,0.09441 -1.447526,0.133234 -1.158799,0.07965 -1.472271,-0.01356 -1.967532,-0.585087 -0.372849,-0.43026 -0.39035,-1.165268 -0.03964,-1.664936 0.155059,-0.220918 1.07566,-0.871092 2.569045,-1.814388 1.280065,-0.808552 2.3334,-1.514098 2.340745,-1.56788 0.01211,-0.08864 -6.371073,-1.617049 -6.770738,-1.621202 -0.149536,-0.0016 -0.133229,0.24257 0.139216,2.084133 l 0.30859,2.085893 -0.21246,0.466378 c -0.251556,0.552197 -0.752305,0.888144 -1.324664,0.888702 -0.385563,3.75e-4 -6.399428,-1.972472 -7.356228,-2.41321 -0.548945,-0.252864 -0.890113,-0.752855 -0.890113,-1.304482 0,-0.224617 0.266715,-1.181134 0.592699,-2.125593 0.325985,-0.944456 0.579722,-1.767537 0.563858,-1.829067 -0.01749,-0.06787 -1.296328,0.229455 -3.250885,0.755809 -2.026918,0.54584 -3.347873,0.85145 -3.561273,0.823921 -0.186575,-0.02407 -1.733157,-0.754701 -3.436848,-1.623627 -1.956333,-0.997779 -3.145891,-1.548306 -3.22863,-1.494207 -0.07206,0.04712 -1.146289,1.329291 -2.387184,2.849287 l -2.256174,2.763628 0.368312,0.03207 c 0.202572,0.01764 1.131813,-0.01502 2.064979,-0.07259 1.642492,-0.101325 1.712041,-0.09735 2.178172,0.124358 0.29531,0.140464 0.564867,0.370172 0.697079,0.594034 0.240259,0.406802 0.24718,1.339019 0.09795,13.192413 l -0.06565,5.214392 1.589767,2.480736 c 0.963886,1.504089 1.617774,2.427878 1.660908,2.346477 0.03912,-0.07385 0.127872,-0.718592 0.197209,-1.432779 0.148123,-1.525696 0.288841,-1.83223 0.998702,-2.175553 0.386928,-0.187137 0.589102,-0.224664 0.902644,-0.167549 0.84756,0.154394 0.974153,0.372745 2.730763,4.710139 0.888438,2.193718 1.65798,4.097473 1.710093,4.230566 l 0.09475,0.241987 2.453546,-0.04519 c 1.34945,-0.02485 2.465659,-0.05536 2.480463,-0.06781 z M 86.841445,50.707863 c 0.994054,-0.207706 1.823383,-0.391418 1.842954,-0.40825 0.01957,-0.01683 -1.222807,-3.730896 -2.76084,-8.253476 L 83.127135,33.823264 82.009587,32.677401 C 77.067088,27.609677 70.343919,23.544791 63.311579,21.372423 60.746716,20.580108 57.125668,19.824541 55.032144,19.644837 l -0.75181,-0.06453 -1.472408,1.126233 c -0.809824,0.619426 -1.474371,1.155209 -1.476772,1.190628 -0.0024,0.03542 1.143491,0.334442 2.546424,0.664495 1.402932,0.330055 2.656812,0.653049 2.786398,0.717763 0.129588,0.06471 1.43052,1.361295 2.890961,2.881291 l 2.65535,2.763628 2.21061,0.278244 c 2.438502,0.306928 5.759864,0.943162 6.345567,1.215545 0.283809,0.131987 1.040878,1.017985 3.090074,3.616316 l 2.714167,3.441499 3.42368,5.631543 c 1.883023,3.097349 3.744619,6.159502 4.13688,6.804783 0.392259,0.645281 0.755862,1.173238 0.808004,1.173238 0.05214,0 0.908122,-0.169941 1.902176,-0.377648 z M 46.708528,33.087219 c 0,-0.03343 -1.051193,-1.115538 -2.335983,-2.404685 l -2.335983,-2.343904 -3.90284,-1.91685 -3.902838,-1.916848 -1.413537,0.479928 c -0.777444,0.26396 -1.433376,0.495435 -1.457627,0.514388 -0.02425,0.01896 0.03763,0.12214 0.137505,0.229305 0.49858,0.534954 0.42085,1.419905 -0.171888,1.956907 -0.193122,0.174961 -1.595162,1.035019 -3.115646,1.911238 -1.520481,0.876219 -2.744376,1.624765 -2.719762,1.663435 0.02461,0.03867 0.626773,0.299608 1.338134,0.579862 l 1.293382,0.509552 3.842915,-1.54321 c 2.423897,-0.973372 4.021378,-1.558231 4.326222,-1.583889 0.429899,-0.03618 1.023307,0.177541 5.370075,1.934117 2.687722,1.086137 4.923016,1.978539 4.967319,1.983115 0.0443,0.0046 0.08055,-0.01903 0.08055,-0.05246 z"
     id="path2" />
  <text
     xml:space="preserve"
     id="text3"
     style="fill:#a866ff;stroke:#ececec;fill-opacity:1;white-space:pre;shape-inside:url(#rect3)" />
  <metadata
     id="metadata4">
    <rdf:RDF>
      <cc:Work
         rdf:about="">
        <dc:title>Artboard 2</dc:title>
      </cc:Work>
    </rdf:RDF>
  </metadata>
</svg>
