<svg xmlns="http://www.w3.org/2000/svg" data-name="Capa 2" viewBox="0 0 100 125" x="0px" y="0px"><title>Artboard 2</title><path d="M50,5.5A44.5,44.5,0,1,0,94.5,50,44.55,44.55,0,0,0,50,5.5Zm3.86,3.22A41.29,41.29,0,0,1,80.45,22.35l5.14,15.59-3.47.75L74.53,25.83l-.1-.15-4.82-6.31a1.49,1.49,0,0,0-.88-.56l-4-.83-.12,0-3.45-.43L56.4,12.45a1.49,1.49,0,0,0-.74-.43l-4.58-1.11ZM32.59,14.37l2.67-.94,1.62.87L42.3,17l4.48,4.59-9-3.71a1.49,1.49,0,0,0-1.14,0l-7.08,2.92-2.44-1,5.21-3.1a1.49,1.49,0,0,0,.26-2.37ZM52.48,61.66a1.49,1.49,0,0,0-1.31-.34l-3.56.78L52,60.54a1.49,1.49,0,0,0,.43-.24l4.38-3.48,11.46.42v1.38a1.49,1.49,0,0,0,1.93,1.43l6.68-2L76,68.17l-10,12.27-.07.1-2.73,4-.7-9.86a1.49,1.49,0,0,0-1.14-1.35l-5-1.22-3.73-4L53,62.91A1.5,1.5,0,0,0,52.48,61.66Zm11,27.58,4.8-7L78.56,69.71a1.49,1.49,0,0,0,.33-.81L80,56.11a1.49,1.49,0,0,0-1.92-1.57l-6.87,2.08v-.81a1.49,1.49,0,0,0-1.44-1.49l-13.45-.5a1.53,1.53,0,0,0-1,.32l-4.62,3.67L47.54,59l-1.21-2.21a1.5,1.5,0,0,0-1-.74L44,55.73l-.36-2.61a1.49,1.49,0,0,0-2.6-.79l-2.16,2.44L37.71,55l-1-1,.1-2.5,3.56-2,4.1,2.12a1.49,1.49,0,0,0,2-2l-.95-1.89,1-6.31,5.27-7.18a1.49,1.49,0,0,0-.93-2.35l2.2-1.43a1.49,1.49,0,0,0-.47-2.71L40.71,25a1.49,1.49,0,0,0-1.82,1.67L39.37,30l-2.43-.85,1.53-4.58a1.49,1.49,0,0,0-1.81-1.91l-7.9,2.17-6.12-3.21a1.49,1.49,0,0,0-1.86.39l-7.14,9a1.49,1.49,0,0,0,1.24,2.42l5.23-.25-.15,15.68a1.5,1.5,0,0,0,.23.8l5.48,8.8a1.49,1.49,0,0,0,2.76-.65l.06-.66,1.21,3.06a1.49,1.49,0,0,0,1.42.94L38.23,61l3.1.7,3.87,3.4a1.49,1.49,0,0,0,1.31.34l3.33-.73-.32,3.79a1.49,1.49,0,0,0,.4,1.15l4.48,4.82a1.49,1.49,0,0,0,.74.43l4.42,1.07.92,13A1.48,1.48,0,0,0,61,90a41.49,41.49,0,0,1-33-75.2,1.47,1.47,0,0,0,.41.42l.29.19L23,18.83a1.49,1.49,0,0,0,.21,2.67L29,23.82a1.49,1.49,0,0,0,1.13,0l7.07-2.92L47.11,25a1.49,1.49,0,0,0,1.2,0l2.16-1a1.49,1.49,0,0,0,.44-2.4l-6.64-6.81a1.51,1.51,0,0,0-.4-.29l-5.61-2.8-1.71-.92A41.3,41.3,0,0,1,49.31,8.51l-.86.68-4.36.3a1.49,1.49,0,0,0,.1,3h.65l9.69,2.34L59.37,20a1.49,1.49,0,0,0,.9.46l3.92.49,3.38.7L72,27.42,80.1,41.13a1.49,1.49,0,0,0,1.29.73,1.52,1.52,0,0,0,.32,0l6.14-1.33a1.49,1.49,0,0,0,1.1-1.93L85.79,29A41.46,41.46,0,0,1,63.5,89.24Zm-16.72-27-.18,0-.09-.08Zm-1.38-1L43,59.17a1.49,1.49,0,0,0-.66-.34L38.71,58a1.52,1.52,0,0,0-.33,0h-.21L40,57.61a1.49,1.49,0,0,0,.83-.48l.33-.37.06.42a1.49,1.49,0,0,0,1.17,1.26l1.66.36ZM34.17,55.71l2,2a1.5,1.5,0,0,0,.46.31l-4.54.1L29,50.28a1.49,1.49,0,0,0-1.39-.94h-.21a1.49,1.49,0,0,0-1.28,1.33l-.24,2.42-2.92-4.69.16-16.83a1.49,1.49,0,0,0-.46-1.09,1.48,1.48,0,0,0-1.11-.42L18,30.25l4.31-5.42,5.55,2.91a1.49,1.49,0,0,0,1.09.12l5.77-1.58L33.64,29.6a1.49,1.49,0,0,0,.92,1.88l6.14,2.16a1.49,1.49,0,0,0,2-1.62l-.52-3.64,6.43,1.52-4.22,2.75a1.49,1.49,0,0,0,1,2.74l2.18-.2L44,40a1.5,1.5,0,0,0-.27.64l-1.09,6.7-1.56-.81a1.5,1.5,0,0,0-1.42,0l-5,2.82a1.49,1.49,0,0,0-.76,1.24l-.17,4A1.49,1.49,0,0,0,34.17,55.71Z"/><text x="0" y="115" fill="#000000" font-size="5px" font-weight="bold" font-family="'Helvetica Neue', Helvetica, Arial-Unicode, Arial, Sans-serif">Created by Aline Escobar</text><text x="0" y="120" fill="#000000" font-size="5px" font-weight="bold" font-family="'Helvetica Neue', Helvetica, Arial-Unicode, Arial, Sans-serif">from the Noun Project</text></svg>